<svg xmlns="http://www.w3.org/2000/svg" viewBox="0 0 1024 1024"><defs><radialGradient id="b" cx="36%" cy="30%" r="80%"><stop offset="0" stop-color="#ffe0c4"/><stop offset=".55" stop-color="#f59a86"/><stop offset="1" stop-color="#d45a7c"/></radialGradient></defs><rect width="1024" height="1024" fill="#1c1424"/><path d="M792.5 580.0C794.7 603.6 789.7 629.7 782.4 652.4C775.1 675.2 761.9 696.9 748.6 716.6C735.3 736.2 719.8 755.0 702.3 770.3C684.9 785.7 664.9 799.9 644.0 808.7C623.2 817.5 599.2 821.4 577.2 823.2C555.2 825.0 533.3 821.0 512.0 819.4C490.7 817.7 471.1 815.8 449.5 813.4C427.8 811.1 404.2 811.5 381.9 805.3C359.6 799.1 334.2 790.6 315.8 776.2C297.4 761.8 281.6 740.1 271.6 718.8C261.7 697.5 258.8 671.7 256.1 648.6C253.4 625.4 254.4 602.6 255.3 580.0C256.1 557.4 256.5 534.8 261.1 512.8C265.6 490.7 271.9 467.4 282.7 447.6C293.5 427.8 309.3 409.4 325.8 393.8C342.3 378.3 362.1 365.9 381.7 354.3C401.3 342.6 421.7 331.6 443.4 324.0C465.1 316.4 489.1 308.8 512.0 308.6C534.9 308.3 560.2 313.3 581.0 322.4C601.8 331.6 620.4 348.7 636.9 363.6C653.5 378.5 665.7 396.1 680.3 411.7C694.9 427.3 709.9 440.6 724.8 457.2C739.6 473.7 757.9 490.6 769.2 511.1C780.5 531.6 790.3 556.4 792.5 580.0Z" fill="#f59a86" opacity=".18"/>
          <path d="M754.5 580.0C754.6 600.7 749.8 622.3 743.8 642.1C737.7 662.0 729.0 681.6 718.3 699.1C707.6 716.7 694.6 734.0 679.6 747.6C664.5 761.1 646.1 772.5 627.8 780.5C609.5 788.6 589.2 792.6 569.9 796.1C550.6 799.6 531.5 800.8 512.0 801.6C492.5 802.5 472.6 803.8 452.7 801.1C432.9 798.5 411.3 794.7 393.2 785.8C375.0 777.0 357.2 763.3 343.9 748.1C330.5 733.0 321.1 713.2 313.0 694.9C305.0 676.5 300.2 657.1 295.6 638.0C290.9 618.8 286.6 599.8 285.0 580.0C283.4 560.2 282.4 539.2 286.0 519.4C289.6 499.7 296.8 479.2 306.5 461.3C316.2 443.5 329.9 426.9 344.3 412.3C358.6 397.6 375.2 384.2 392.8 373.5C410.3 362.7 429.9 352.7 449.7 347.6C469.6 342.6 491.9 340.7 512.0 343.2C532.1 345.7 552.4 354.0 570.3 362.5C588.2 371.0 603.6 383.3 619.4 394.1C635.1 404.8 649.7 415.2 664.8 427.2C679.8 439.2 696.5 450.8 709.6 465.9C722.7 481.0 736.0 499.0 743.5 518.0C751.0 537.0 754.5 559.3 754.5 580.0Z" fill="url(#b)"/>
          <path d="M512 356V316" stroke="#78b163" stroke-width="30" stroke-linecap="round"/><g transform="translate(512 330) scale(0.78)"><path d="M0 0C-18 -92 -96 -140 -196 -132C-180 -34 -96 16 0 0Z" fill="#9cc77a"/><path d="M0 -18C8 -118 90 -176 196 -170C184 -64 96 -6 0 -18Z" fill="#78b163"/></g>
          <path d="M428 486C454 462 490 454 526 458" fill="none" stroke="#fff1e6" stroke-width="24" stroke-linecap="round" opacity=".85"/></svg>